<?xml version="1.0" encoding="utf-8"?>
<!-- Generator: Adobe Illustrator 21.0.0, SVG Export Plug-In . SVG Version: 6.00 Build 0)  -->
<svg version="1.1" id="Capa_1" xmlns="http://www.w3.org/2000/svg" xmlns:xlink="http://www.w3.org/1999/xlink" x="0px" y="0px"
	 viewBox="0 0 512 512" style="enable-background:new 0 0 512 512;" xml:space="preserve">
<style type="text/css">
	.st0{fill:#FFB454;}
	.st1{fill:#FF7D47;}
	.st2{fill:#F2D131;}
	.st3{fill:#FF9D21;}
	.st4{fill:#FAF17D;}
	.st5{fill:#966117;}
</style>
<g>
	<path class="st0" d="M181.6,374.6c-0.2,0.4-21.4,46-6.8,119.5c1.9,9.3-5.2,17.9-14.7,17.9c-45.9,0-87-20.3-94-66.1
		c-45.7-7-66.1-48.1-66.1-94c0-9.5,8.7-16.6,17.9-14.7c73.5,14.7,119-6.5,119.5-6.8c10.3-4.9,21.8,2.9,21.5,13.9
		c-0.1,3.2-0.1,6.2-0.1,8.8c2.6,0,5.6-0.1,8.8-0.1C178.8,352.8,186.4,364.5,181.6,374.6L181.6,374.6z"/>
	<path class="st1" d="M181.6,374.6c-0.2,0.4-21.4,46-6.8,119.5c1.9,9.3-5.2,17.9-14.7,17.9c-45.9,0-87-20.3-94-66.1l92.7-92.7
		c2.6,0,5.6-0.1,8.8-0.1C178.8,352.8,186.4,364.5,181.6,374.6L181.6,374.6z"/>
	<path class="st1" d="M358.7,298.4c-33.3,24.1-77.2,40.5-130.2,49c-7.7,1.2-13.1,8.1-12.6,15.8c3,43.9,26.5,82.9,27.5,84.5
		c3.4,5.6,10,8.3,16.3,6.8c3.4-0.8,84.7-20.9,109.4-80.3c8.7-21,13.4-43.1,13.4-63.7C382.5,298.4,368.6,291.3,358.7,298.4
		L358.7,298.4z"/>
	<path class="st0" d="M283.3,90C215.7,165,207.1,272,207.1,273c-0.6,7.5-6.5,13.4-14,13.9c-19.4,1-48.4-1.8-75.1-9.6
		c-52.2-15.1-93.3-47-115.5-95.1C0,177,0.8,170.8,4.5,166.3C45.1,117.6,109,91,170.8,77.3c55-12.2,99.4-12.4,101.3-12.4
		C285.1,64.9,291.9,80.3,283.3,90L283.3,90z"/>
	<path class="st1" d="M136,180.7c-30.5,19-48.9,44.1-59,61.8l-7.9,14c-8.8-5.3-16.9-11.2-24.5-17.7l6.3-11.1
		c11.8-20.7,33.4-50,69.1-72.4c7-4.4,16.3-2.3,20.7,4.8C145.2,167,143.1,176.3,136,180.7L136,180.7z"/>
	<path class="st2" d="M402.8,300.2c-44.5,44.5-107.5,67-169.6,76.9c-35.1,5.6-71,6.9-89.9,5.9c-7.6-0.4-13.7-6.5-14.2-14.2
		c0-0.4-0.5-9.8-0.1-25.2c2.2-82.4,24.6-176.1,82.9-234.4C307,14.1,461.1-23.5,497.3,14.8C535.8,54.9,496.5,206.5,402.8,300.2z"/>
	<path class="st3" d="M402.8,300.2c-44.5,44.5-107.5,67-169.6,76.9c-35.1,5.6-71,6.9-89.9,5.9c-3.8-0.2-7.3-1.8-9.8-4.4L497.3,14.8
		C535.8,54.9,496.5,206.5,402.8,300.2L402.8,300.2z"/>
	<path class="st4" d="M511.3,79.2c-2.3,27.7-10.9,60.7-24.1,92.8C313.4,155.6,306.4,40.7,306.4,40.7C343.5,21.4,383.5,7.8,419,2.5
		c24.4-3.7,61.4-5.6,78.3,12.3C512,30.1,513,58.2,511.3,79.2L511.3,79.2z"/>
	<path class="st2" d="M511.3,79.2c-2.3,27.7-10.9,60.7-24.1,92.8c-50.5-4.8-86.9-17.8-113.2-34L497.3,14.8
		C512,30.1,513,58.2,511.3,79.2z"/>
	<path class="st5" d="M393.2,81.4c-0.4-3.8,0.7-7.8,3.3-11c5.2-6.3,14.6-7.4,21.1-2.1c6.4,5.2,7.4,14.7,2.1,21.1
		C411,99.8,394.6,94.6,393.2,81.4L393.2,81.4z"/>
</g>
</svg>
