<?xml version="1.0" encoding="utf-8"?>
<!-- Generator: Adobe Illustrator 21.0.0, SVG Export Plug-In . SVG Version: 6.00 Build 0)  -->
<svg version="1.1" id="Layer_1" xmlns="http://www.w3.org/2000/svg" xmlns:xlink="http://www.w3.org/1999/xlink" x="0px" y="0px"
	 viewBox="0 0 512 355" style="enable-background:new 0 0 512 355;" xml:space="preserve">
<style type="text/css">
	.st0{fill:#79AB03;}
	.st1{fill:#85BB04;}
	.st2{fill:#9CDD05;}
	.st3{fill:#B2FA09;}
	.st4{fill:#C2FB3B;}
</style>
<g>
	<path class="st0" d="M16.7,355H9c-4.3,0-7.8-3.5-7.8-7.8s3.5-7.8,7.8-7.8h7.7c4.3,0,7.8,3.5,7.8,7.8C24.5,351.5,21,355,16.7,355z"
		/>
	<path class="st0" d="M495.3,355h7.7c4.3,0,7.8-3.5,7.8-7.8s-3.5-7.8-7.8-7.8h-7.7c-4.3,0-7.8,3.5-7.8,7.8
		C487.5,351.5,491,355,495.3,355z"/>
</g>
<path class="st1" d="M501,209.8c-13.7-12.5-34.9-11.4-47.4,2.3c-19.4,21.4-23.7,39.3-26.8,52.3c-2.3,9.7-3.3,14.1-11.1,22.7
	c-7.8,8.6-12.1,10-21.5,13.3c-12.7,4.3-30.1,10.3-49.5,31.6c-7.5,8.2-12.7,15.9-16.4,23h142c4.3,0,7.8-3.5,7.8-7.8s-3.5-7.8-7.8-7.8
	h-11.8c2.3-2.2,4.6-4.5,7-7.1c19.4-21.4,23.7-39.3,26.8-52.3c2.3-9.7,3.3-14.1,11.1-22.7C515.7,243.5,514.7,222.3,501,209.8z"/>
<path class="st0" d="M480.1,232.3c-19.4,21.4-23.7,39.3-26.8,52.3c-2.3,9.7-3.3,14.1-11.1,22.7c-7.8,8.6-12.1,10-21.5,13.3
	c-12.7,4.3-30.1,10.3-49.5,31.6c-0.8,0.9-1.7,1.9-2.5,2.8h-40.5c3.8-7.1,9-14.8,16.4-23c19.4-21.4,36.8-27.3,49.5-31.6
	c9.4-3.2,13.7-4.7,21.5-13.3c7.8-8.6,8.8-13,11.1-22.7c3.1-13,7.3-30.9,26.8-52.3c12.5-13.7,33.7-14.7,47.4-2.3
	c3.7,3.4,6.5,7.4,8.4,11.8C498.8,220.2,487.8,223.9,480.1,232.3z"/>
<path class="st2" d="M455.5,179.3c0.4,13.4,0.9,31.8-12.4,57.4c-13.3,25.7-28.5,35.9-39.7,43.3c-8.3,5.5-12,8.1-17.4,18.4
	c-5.3,10.3-5.2,14.8-4.9,24.8c0.2,8.4,0.5,18.8-2.6,31.8h-72.3c0.9-1.5,1.9-3.2,2.9-5.1c5.3-10.3,5.2-14.8,4.9-24.8
	c-0.4-13.4-0.9-31.8,12.4-57.4c13.3-25.7,28.5-35.9,39.7-43.3c8.3-5.5,12-8.1,17.4-18.4c5.3-10.3,5.2-14.8,4.9-24.8
	c-0.4-13.4-0.9-31.8,12.4-57.4c8.5-16.5,28.7-22.9,45.2-14.4c16.5,8.5,22.9,28.7,14.4,45.2C455.1,164.8,455.3,169.3,455.5,179.3z"/>
<g>
	<path class="st1" d="M427.6,140.4c-13.3,25.7-12.7,44-12.4,57.4c0.3,9.9,0.4,14.5-4.9,24.8C405,233,401.3,235.5,393,241
		c-11.1,7.5-26.4,17.7-39.7,43.3c-13.3,25.7-12.7,44-12.4,57.4c0.1,5.4,0.2,9.2-0.5,13.2h-34.1c0.9-1.5,1.9-3.2,2.9-5.1
		c5.3-10.3,5.2-14.8,4.9-24.8c-0.4-13.4-0.9-31.8,12.4-57.4c13.3-25.7,28.5-35.9,39.7-43.3c8.3-5.5,12-8.1,17.4-18.4
		s5.2-14.8,4.9-24.8c-0.4-13.4-0.9-31.8,12.4-57.4c8.5-16.5,28.7-22.9,45.2-14.4c5.9,3.1,10.6,7.7,13.7,13.1
		C446.8,121.5,434,128.2,427.6,140.4z"/>
	<path class="st1" d="M167.3,332c-19.4-21.4-36.8-27.3-49.5-31.6c-9.4-3.2-13.7-4.7-21.5-13.3c-7.8-8.6-8.8-13-11.1-22.7
		c-3.1-13-7.3-30.9-26.8-52.3c-12.5-13.7-33.7-14.7-47.4-2.3c-13.7,12.5-14.7,33.7-2.3,47.4c7.8,8.6,8.8,13,11.1,22.7
		c3.1,13,7.3,30.9,26.8,52.3c2.4,2.6,4.7,4.9,7,7.1H41.7c-4.3,0-7.8,3.5-7.8,7.8s3.5,7.8,7.8,7.8h142
		C179.9,347.9,174.7,340.2,167.3,332z"/>
</g>
<path class="st0" d="M31.9,232.3c19.4,21.4,23.7,39.3,26.8,52.3c2.3,9.7,3.3,14.1,11.1,22.7c7.8,8.6,12.1,10,21.5,13.3
	c12.7,4.3,30.1,10.3,49.5,31.6c0.8,0.9,1.7,1.9,2.5,2.8h40.5c-3.8-7.1-9-14.8-16.4-23c-19.4-21.4-36.8-27.3-49.5-31.6
	c-9.4-3.2-13.7-4.7-21.5-13.3c-7.8-8.6-8.8-13-11.1-22.7c-3.1-13-7.3-30.9-26.8-52.3c-12.5-13.7-33.7-14.7-47.4-2.3
	c-3.7,3.4-6.5,7.4-8.4,11.8C13.2,220.2,24.2,223.9,31.9,232.3z"/>
<path class="st2" d="M56.5,179.3c-0.4,13.4-0.9,31.8,12.4,57.4c13.3,25.7,28.5,35.9,39.7,43.3c8.3,5.5,12,8.1,17.4,18.4
	c5.3,10.3,5.2,14.8,4.9,24.8c-0.2,8.4-0.5,18.8,2.6,31.8h72.3c-0.9-1.5-1.9-3.2-2.9-5.1c-5.3-10.3-5.2-14.8-4.9-24.8
	c0.4-13.4,0.9-31.8-12.4-57.4c-13.3-25.7-28.5-35.9-39.7-43.3c-8.3-5.5-12-8.1-17.4-18.4c-5.3-10.3-5.2-14.8-4.9-24.8
	c0.4-13.4,0.9-31.8-12.4-57.4c-8.5-16.5-28.7-22.9-45.2-14.4C49.5,117.8,43,138,51.5,154.5C56.9,164.8,56.7,169.3,56.5,179.3z"/>
<path class="st1" d="M84.4,140.4c13.3,25.7,12.7,44,12.4,57.4c-0.3,9.9-0.4,14.5,4.9,24.8c5.3,10.3,9.1,12.8,17.4,18.4
	c11.1,7.5,26.4,17.7,39.7,43.3c13.3,25.7,12.7,44,12.4,57.4c-0.1,5.4-0.2,9.2,0.5,13.2h34.1c-0.9-1.5-1.9-3.2-2.9-5.1
	c-5.3-10.3-5.2-14.8-4.9-24.8c0.4-13.4,0.9-31.8-12.4-57.4c-13.3-25.7-28.5-35.9-39.7-43.3c-8.3-5.5-12-8.1-17.4-18.4
	s-5.2-14.8-4.9-24.8c0.4-13.4,0.9-31.8-12.4-57.4c-8.5-16.5-28.7-22.9-45.2-14.4c-5.9,3.1-10.6,7.7-13.7,13.1
	C65.2,121.5,78,128.2,84.4,140.4z"/>
<path class="st3" d="M158.4,212.8c6.6,7.4,9.7,10.8,12.3,22.1c2.6,11.3,1.4,15.7-1.4,25.2c-3.7,12.9-8.7,30.6-2.2,58.7
	c3.7,16.2,9.4,27.5,15.2,36.2h82.6c-6.3-13.8-14-22.4-20.2-29.2c-6.6-7.4-9.7-10.8-12.3-22.1s-1.4-15.7,1.4-25.2
	c3.7-12.9,8.7-30.6,2.2-58.7c-6.5-28.1-18.8-41.8-27.7-51.8c-6.6-7.4-9.7-10.8-12.3-22.1c-2.6-11.3-1.4-15.7,1.4-25.2
	c3.7-12.9,8.7-30.6,2.2-58.7c-4.2-18-22.2-29.3-40.2-25.1C141.2,41,130,59,134.2,77.1c2.6,11.3,1.4,15.7-1.4,25.2
	c-3.7,12.9-8.7,30.6-2.2,58.7C137.1,189.1,149.4,202.8,158.4,212.8z"/>
<path class="st2" d="M244.7,325.8c-6.6-7.4-9.7-10.8-12.3-22.1c-2.6-11.3-1.4-15.7,1.4-25.2c3.7-12.9,8.7-30.6,2.2-58.7
	c-6.5-28.1-18.8-41.8-27.7-51.8c-6.6-7.4-9.7-10.8-12.3-22.1c-2.6-11.3-1.4-15.7,1.4-25.2c3.7-12.9,8.7-30.6,2.2-58.7
	c-4.2-18-22.2-29.3-40.2-25.1c-3.2,0.7-6.1,1.9-8.8,3.4c8,4.5,14.1,12.1,16.3,21.7c6.5,28.1,1.5,45.8-2.2,58.7
	c-2.7,9.6-4,13.9-1.4,25.2c2.6,11.3,5.6,14.7,12.3,22.1c9,10,21.2,23.6,27.7,51.8s1.5,45.8-2.2,58.7c-2.7,9.6-4,13.9-1.4,25.2
	c2.6,11.3,5.6,14.7,12.3,22.1c6.1,6.8,13.9,15.4,20.2,29.2h32.7C258.6,341.2,250.9,332.6,244.7,325.8z"/>
<path class="st3" d="M353.6,212.8c-6.6,7.4-9.7,10.8-12.3,22.1c-2.6,11.3-1.4,15.7,1.4,25.2c3.7,12.9,8.7,30.6,2.2,58.7
	c-3.7,16.2-9.4,27.5-15.2,36.2h-82.6c6.3-13.8,14-22.4,20.2-29.2c6.6-7.4,9.7-10.8,12.3-22.1c2.6-11.3,1.4-15.7-1.4-25.2
	c-3.7-12.9-8.7-30.6-2.2-58.7s18.8-41.8,27.7-51.8c6.6-7.4,9.7-10.8,12.3-22.1c2.6-11.3,1.4-15.7-1.4-25.2
	c-3.7-12.9-8.7-30.6-2.2-58.7c4.2-18,22.2-29.3,40.2-25.1c18,4.2,29.3,22.2,25.1,40.2c-2.6,11.3-1.4,15.7,1.4,25.2
	c3.7,12.9,8.7,30.6,2.2,58.7C374.9,189.1,362.6,202.8,353.6,212.8z"/>
<path class="st2" d="M267.3,325.8c6.6-7.4,9.7-10.8,12.3-22.1c2.6-11.3,1.4-15.7-1.4-25.2c-3.7-12.9-8.7-30.6-2.2-58.7
	c6.5-28.1,18.8-41.8,27.7-51.8c6.6-7.4,9.7-10.8,12.3-22.1c2.6-11.3,1.4-15.7-1.4-25.2c-3.7-12.9-8.7-30.6-2.2-58.7
	c4.2-18,22.2-29.3,40.2-25.1c3.2,0.7,6.1,1.9,8.8,3.4c-8,4.5-14.1,12.1-16.3,21.7c-6.5,28.1-1.5,45.8,2.2,58.7
	c2.7,9.6,4,13.9,1.4,25.2c-2.6,11.3-5.6,14.7-12.3,22.1c-9,10-21.2,23.6-27.7,51.8c-6.5,28.1-1.5,45.8,2.2,58.7
	c2.7,9.6,4,13.9,1.4,25.2c-2.6,11.3-5.6,14.7-12.3,22.1c-6.1,6.8-13.9,15.4-20.2,29.2h-32.7C253.4,341.2,261.1,332.6,267.3,325.8z"
	/>
<path class="st4" d="M212.4,276.5c0,28.9,8.9,45,15.4,56.7c4.4,8.1,6.7,12.1,7,21.8h67.1c-0.5-27.3-9-42.8-15.3-54.2
	c-4.8-8.7-7-12.7-7-24.3c0-11.6,2.2-15.6,7-24.3c6.5-11.7,15.4-27.8,15.4-56.7c0-28.9-8.9-45-15.4-56.7c-4.8-8.7-7-12.7-7-24.3
	c0-11.6,2.2-15.6,7-24.3c6.5-11.7,15.4-27.8,15.4-56.7c0-18.5-15-33.5-33.5-33.5s-33.5,15-33.5,33.5c0,11.6-2.2,15.6-7,24.3
	c-6.5,11.7-15.4,27.8-15.4,56.7c0,28.9,8.9,45,15.4,56.7c4.8,8.7,7,12.7,7,24.3c0,11.6-2.2,15.6-7,24.3
	C221.3,231.5,212.4,247.6,212.4,276.5z"/>
<path class="st3" d="M262.2,333.2c-6.5-11.7-15.4-27.8-15.4-56.7c0-28.9,8.9-45,15.4-56.7c4.8-8.7,7-12.7,7-24.3
	c0-11.6-2.2-15.6-7-24.3c-6.5-11.7-15.4-27.8-15.4-56.7c0-28.9,8.9-45,15.4-56.7c4.8-8.7,7-12.7,7-24.3c0-12.2,6.5-22.9,16.3-28.8
	c-5-3-10.9-4.8-17.2-4.8c-18.5,0-33.5,15-33.5,33.5c0,11.6-2.2,15.6-7,24.3c-6.5,11.7-15.4,27.8-15.4,56.7c0,28.9,8.9,45,15.4,56.7
	c4.8,8.7,7,12.7,7,24.3c0,11.6-2.2,15.6-7,24.3c-6.5,11.7-15.4,27.8-15.4,56.7s8.9,45,15.4,56.7c4.4,8.1,6.7,12.1,7,21.8l34.5,0
	C268.9,345.2,266.7,341.2,262.2,333.2z"/>
</svg>
