<svg id="Capa_1" enable-background="new 0 0 497 497" height="512" viewBox="0 0 497 497" width="512" xmlns="http://www.w3.org/2000/svg"><g><path d="m252.131 152.92-54.244 4.884v-45.415l61.41-38.354c13.891 7.566 24.64 16.984 32.897 26.512z" fill="#ccccca"/><path d="m171.655 120.673c-3.503-16.253-8.687-30.275-13.201-40.603-4.233-9.678 2.302-20.727 12.831-21.618 17.544-1.501 33.067-.771 46.768 1.571z" fill="#ccccca"/><path d="m259.297 74.035c-16.383 17.154-40.023 45.367-61.41 83.769l-22.108 1.992c.17-13.861-1.521-27.102-4.123-39.122 16.814-28.443 34.769-48.89 46.398-60.65 16.133 2.752 29.764 7.756 41.243 14.011z" fill="#dadada"/><path d="m317.565 147.035-65.434 5.885c14.352-23.379 29.224-40.974 40.063-52.373 19.906 22.918 25.371 46.488 25.371 46.488z" fill="#dadada"/><path d="m62.53 246.549c-12.841-12.841-29.676-18.812-45.285-17.606-9.124.705-16.389 7.97-17.094 17.094-1.206 15.609 4.765 32.443 17.606 45.285 3.727 3.727 7.792 6.872 12.064 9.434-4.272 2.562-8.337 5.707-12.064 9.434-12.84 12.841-18.811 29.676-17.605 45.284.705 9.124 7.97 16.389 17.094 17.094 15.609 1.206 32.443-4.765 45.285-17.606 15.337-15.337 20.868-36.369 16.081-54.206 4.786-17.838-.744-38.87-16.082-54.207z" fill="#a19dae"/><path d="m494.03 372.5c-11.439-11.105-30.481-30.746-34.732-42.309l-44.358 35.508s21.862 55.307 77.306 22.203c5.515-3.293 6.393-10.928 1.784-15.402z" fill="#b2b0bc"/><path d="m468.9 300.755c0 87.588-89.966 138.575-200.945 138.575s-200.945-50.987-200.945-138.575 89.966-158.592 200.945-158.592 200.945 71.005 200.945 158.592z" fill="#c7c5cb"/><g fill="#fff"><ellipse cx="243.961" cy="306.717" rx="32.413" ry="25.812"/><ellipse cx="419.653" cy="306.717" rx="32.413" ry="25.812"/></g><g><path d="m262.851 289.369c-4.142 0-7.5-3.358-7.5-7.5v-13.25c0-4.142 3.358-7.5 7.5-7.5s7.5 3.358 7.5 7.5v13.25c0 4.142-3.358 7.5-7.5 7.5z" fill="#423e4f"/></g><g><path d="m400.762 289.369c-4.142 0-7.5-3.358-7.5-7.5v-13.25c0-4.142 3.358-7.5 7.5-7.5s7.5 3.358 7.5 7.5v13.25c0 4.142-3.358 7.5-7.5 7.5z" fill="#423e4f"/></g><g><path d="m331.807 273.974c9.135 0 17.822 3.956 23.834 10.855 2.721 3.123 2.396 7.86-.727 10.582-3.123 2.721-7.86 2.396-10.582-.727-3.162-3.629-7.728-5.71-12.525-5.71s-9.363 2.081-12.525 5.71c-2.721 3.123-7.459 3.448-10.582.727s-3.448-7.459-.727-10.582c6.011-6.898 14.698-10.855 23.834-10.855z" fill="#423e4f"/></g><g><path d="m214.125 405.979c-11.585 0-23.942-3.886-36.92-11.634-4.513-2.694-7.516-7.227-8.238-12.435-.726-5.232.942-10.438 4.575-14.282 4.509-4.772 10.493-12.118 13.394-20.008 1.43-3.888 5.739-5.881 9.627-4.452s5.881 5.74 4.452 9.627c-3.779 10.278-11.096 19.341-16.57 25.135-.672.711-.677 1.509-.62 1.921.067.486.307 1.161 1.068 1.615 15.12 9.026 28.646 11.629 40.199 7.736 17.966-6.052 26.21-26.081 26.292-26.282 1.544-3.834 5.903-5.707 9.741-4.176s5.719 5.869 4.2 9.712c-.427 1.08-10.74 26.553-35.298 34.912-5.116 1.741-10.424 2.61-15.902 2.611z" fill="#b2b0bc"/></g><g><g><path d="m130.444 317.053c-2.083 0-4.154-.862-5.637-2.55-3.582-4.076-5.554-9.588-5.554-15.52s1.972-11.445 5.554-15.52c2.734-3.111 7.473-3.418 10.584-.683 3.111 2.734 3.417 7.473.683 10.585-1.14 1.298-1.821 3.399-1.821 5.619s.681 4.321 1.821 5.619c2.734 3.112 2.428 7.85-.683 10.585-1.424 1.251-3.189 1.865-4.947 1.865z" fill="#b2b0bc"/></g></g><g><path d="m187.953 324.332c-2.083 0-4.154-.862-5.637-2.55-5.143-5.853-8.092-14.163-8.092-22.798s2.95-16.945 8.092-22.798c2.733-3.111 7.473-3.418 10.584-.684s3.418 7.473.684 10.585c-2.771 3.154-4.361 7.855-4.361 12.897s1.589 9.743 4.361 12.897c2.734 3.112 2.428 7.85-.684 10.584-1.424 1.252-3.189 1.867-4.947 1.867z" fill="#b2b0bc"/></g><g><path d="m159.198 320.692c-2.083 0-4.154-.862-5.637-2.55-4.336-4.935-6.823-11.918-6.823-19.159s2.487-14.224 6.823-19.159c2.734-3.111 7.472-3.418 10.585-.684 3.111 2.734 3.417 7.473.684 10.584-1.965 2.236-3.091 5.61-3.091 9.258s1.126 7.023 3.091 9.258c2.734 3.112 2.428 7.85-.684 10.584-1.424 1.254-3.19 1.868-4.948 1.868z" fill="#b2b0bc"/></g><path d="m101.424 285.266c0-48.956 28.093-93.224 73.39-125.061-64.079 26.505-107.804 79.494-107.804 140.55 0 75.076 66.101 123.257 154.875 135.492-72.121-30.599-120.461-86.757-120.461-150.981z" fill="#b2b0bc"/></g></svg>